# ProBuilder 4.3.0
# https://unity3d.com/unity/features/worldbuilding/probuilder
# 2020-09-17 3:30:53 AM

mtllib ./test6.mtl
o test6

g Cube (6)
v -9.686955E-06 1.275603 -0.1811404
v -1.000018 1.275603 -0.1811404
v -9.686955E-06 1.275603 -0.8035154
v -1.000018 1.275603 -0.8035154
v -7.829236E-06 3.000046E-06 -1.291215
v -1.000004 3.000046E-06 -1.291215
v -7.829236E-06 3.000046E-06 0.2460026
v -1.000004 3.000046E-06 0.2460026
v -1.000004 0.4318825 4.038413E-07
v -7.829236E-06 0.4318825 4.038413E-07
v -1.000004 0.4318825 -0.9999996
v -7.829236E-06 0.4318825 -0.9999996
v 0.6252916 1.089563 -0.6444992
v -0.9189372 1.089563 -0.6444992
v 0.6252916 1.089563 -0.331876
v -0.9189372 1.089563 -0.331876
v 0.6252916 3.238104 1.983885
v -0.9189372 3.238104 1.983885
v 0.6252916 3.242279 -2.838109
v -0.9189372 3.242279 -2.838109
v -0.9189372 2.387578 -1.71617
v 0.6252916 2.387578 -1.71617
v -0.9189372 2.391752 0.8540918
v 0.6252916 2.391752 0.8540918

vt 9.686955E-06 -0.1811404
vt 1.000018 -0.1811404
vt 9.686955E-06 -0.8035154
vt 1.000018 -0.8035154
vt -7.829236E-06 -1.291215
vt -1.000004 -1.291215
vt -7.829236E-06 0.2460026
vt -1.000004 0.2460026
vt -7.829236E-06 -0.08772212
vt -1.000004 -0.08772212
vt -1.000004 0.4034889
vt -7.829236E-06 0.4034889
vt -1.000018 1.256335
vt -9.686955E-06 1.256335
vt 0.2460026 1.147748E-05
vt -1.291215 1.147748E-05
vt -0.9999996 0.4318909
vt 4.038413E-07 0.4318909
vt -0.8035154 1.275611
vt -0.1811404 1.275611
vt 1.000004 -0.5159111
vt 7.829236E-06 -0.5159111
vt 7.829236E-06 -0.003646584
vt 1.000004 -0.003646584
vt 9.686955E-06 0.8483057
vt 1.000018 0.8483057
vt 1.291215 3.000055E-06
vt -0.2460026 3.000055E-06
vt 0.9999996 0.4318825
vt 0.1811404 1.275603
vt 0.8035154 1.275603
vt 7.629395E-06 -0.4021244
vt 1.000004 -0.4021245
vt 7.629395E-06 -0.6291144
vt 1.000004 -0.6291145
vt -7.510185E-06 -2.310425
vt -1.000004 -2.310425
vt -7.152557E-06 1.190738
vt -1.000004 1.190738
vt 0.6252916 -0.625891
vt -0.9189372 -0.625891
vt -0.9189372 -0.1468709
vt 0.6252916 -0.1468709
vt -0.9189371 0.04947782
vt 0.6252916 0.04947758
vt -2.838109 3.242283
vt 1.983885 3.238108
vt 0.8540918 2.391756
vt -1.71617 2.387581
vt -0.331876 1.089567
vt -0.6444992 1.089567
vt -0.6276734 0.4371405
vt 0.8064306 -0.2542994
vt 0.3340279 -1.234102
vt -1.100076 -0.5426621
vt 0.7501621 -0.7325485
vt 0.003275827 -1.641979
vt -1.043808 -0.7820423
vt -0.2969213 0.127388
vt -1.983885 3.238104
vt 2.838109 3.242279
vt 1.71617 2.387578
vt -0.8540918 2.391752
vt 0.6444991 1.089563
vt 0.3318758 1.089563

vn 0 1 0
vn 0 -1 0
vn 0 0.4949462 0.8689236
vn 0 0.2099097 0.9777208
vn -1 0 0
vn 0 0.5590724 -0.8291188
vn 0 0.2268094 -0.9739392
vn 1 0 0
vn 0 0.9999996 0.0008658132
vn 0 -0.795469 -0.6059943
vn 0 -0.6366689 -0.7711374
vn 0 -0.8003376 0.5995495
vn 0 -0.6733438 0.7393296

usemtl WALL
f 3/3/1 4/4/1 2/2/1 1/1/1
f 7/7/2 8/8/2 6/6/2 5/5/2
f 10/12/3 9/11/3 8/10/3 7/9/3
f 1/14/4 2/13/4 9/11/4 10/12/4
f 9/18/5 11/17/5 6/16/5 8/15/5
f 2/20/5 4/19/5 11/17/5 9/18/5
f 6/21/6 11/24/6 12/23/6 5/22/6
f 11/24/7 4/26/7 3/25/7 12/23/7
f 5/27/8 12/29/8 10/18/8 7/28/8
f 12/29/8 3/31/8 1/30/8 10/18/8
f 15/34/2 16/35/2 14/33/2 13/32/2
f 19/38/9 20/39/9 18/37/9 17/36/9
f 22/43/10 21/42/10 20/41/10 19/40/10
f 13/45/11 14/44/11 21/42/11 22/43/11
f 21/49/5 23/48/5 18/47/5 20/46/5
f 14/51/5 16/50/5 23/48/5 21/49/5
f 18/52/12 23/55/12 24/54/12 17/53/12
f 23/59/13 16/58/13 15/57/13 24/56/13
f 17/60/8 24/63/8 22/62/8 19/61/8
f 24/63/8 15/65/8 13/64/8 22/62/8

