# ProBuilder 4.3.0
# https://unity3d.com/unity/features/worldbuilding/probuilder
# 2020-09-17 3:23:02 AM

mtllib ./test2.mtl
o test2

g Cube (2)
v 0.5000063 -0.5002479 0.4203934
v -0.4999937 -0.5002479 0.4203934
v 0.5000061 -0.3035066 0.4542099
v -0.4999939 -0.3035066 0.4542099
v -0.5000031 -0.5002293 -0.4201603
v 0.4999969 -0.5002293 -0.4201603
v -0.4999883 -0.1702258 -0.4613293
v 0.5000117 -0.1702258 -0.4613293
v -0.5000031 0.4895168 0.0005873442
v -0.4999911 -0.3199 0.0005871654
v -0.4999909 -0.3199 -0.02888191
v -0.5000031 0.4909617 -0.07011527
v -0.5000031 -0.279003 -0.09156978
v -0.5000031 0.4924116 -0.1233972
v 0.4999969 0.4909617 -0.07011527
v 0.5000091 -0.3199 -0.02888191
v 0.4999969 0.4895168 0.0005873442
v 0.5000089 -0.3199 0.0005871654
v 0.4999969 0.4924116 -0.1233972
v 0.4999969 -0.279003 -0.09156978
v 0.5000091 -0.4949208 -0.02888191
v -0.5000031 -0.494923 -0.09154463
v -0.4999909 -0.4949208 -0.02888191
v 0.4999969 -0.494923 -0.09154463
v 0.4999969 -0.5034928 -0.4201124
v -0.5000031 -0.5034928 -0.4201124
v -0.5000031 0.5034926 0.1498398
v -0.5000031 -0.279003 0.1143126
v -0.5000031 0.4965022 0.08397874
v -0.4999913 -0.3199 0.02908909
v 0.4999969 0.4965022 0.08397874
v 0.5000087 -0.3199 0.02908909
v 0.4999969 -0.279003 0.1143126
v 0.4999969 0.5034926 0.1498398
v 0.4999969 -0.4950226 0.1142863
v -0.4999913 -0.4950209 0.02908909
v -0.5000031 -0.4950226 0.1142863
v 0.5000087 -0.4950209 0.02908909
v -0.5000031 -0.5002293 0.4114485
v 0.4999969 -0.5002293 0.4114485
v -0.5000031 -0.5034928 0.3858048
v 0.4999969 -0.5034928 0.3858048
v 0.500006 -0.1692172 0.4613301
v -0.499994 -0.1692172 0.4613301
v -0.4999893 -0.3896162 -0.290005
v -0.4999891 0.2189464 -0.3307329
v 0.5000109 0.2189464 -0.3307329
v 0.5000107 -0.3896162 -0.290005
v 0.5000107 -0.4992073 -0.2899685
v -0.4999893 -0.4992073 -0.2899685
v -0.499993 -0.3896162 0.2966778
v -0.4999933 0.2179418 0.3504713
v 0.5000067 0.2179418 0.3504713
v 0.500007 -0.3896162 0.2966778
v 0.5000072 -0.4992593 0.2838433
v -0.4999928 -0.4992593 0.2838433

vt 0.5000063 -0.4218041
vt -0.4999937 -0.4218041
vt 0.5000061 -0.2221777
vt -0.4999939 -0.2221777
vt 0.5000031 -0.4443684
vt -0.4999969 -0.4443684
vt 0.4999883 -0.1118068
vt -0.5000117 -0.1118068
vt 0.0005871844 0.4895166
vt 0.0005870056 -0.3199002
vt -0.02888207 -0.3199002
vt -0.07011542 0.4909616
vt -0.09156994 -0.2790031
vt -0.1233973 0.4924115
vt 0.07011511 0.4909619
vt 0.02888175 -0.3198999
vt -0.0005875039 0.4895169
vt -0.0005873251 -0.3198999
vt 0.123397 0.4924118
vt 0.09156962 -0.2790028
vt 0.5000031 -0.1142606
vt -0.4999969 -0.1142606
vt -0.4999969 -0.06101469
vt 0.5000031 -0.06101469
vt -0.4999969 0.009649064
vt 0.5000031 0.009649064
vt 0.5000091 -0.02889886
vt -0.5000031 -0.09156158
vt -0.4999909 -0.02889886
vt 0.4999969 -0.09156158
vt 0.5000089 0.0005871654
vt -0.4999911 0.0005871654
vt -0.09164162 -0.494923
vt -0.02897893 -0.4949208
vt -0.4999909 -0.3199
vt 0.5000091 -0.3199
vt -0.4999909 -0.4949208
vt 0.5000091 -0.4949208
vt 0.0914728 -0.279003
vt 0.02878492 -0.4949208
vt 0.09144761 -0.494923
vt -0.4999969 -0.4940141
vt 0.5000031 -0.4940141
vt -0.4999969 -0.4972779
vt 0.5000031 -0.4972779
vt 0.1498397 0.5034925
vt 0.1143125 -0.2790031
vt 0.08397859 0.4965021
vt 0.02908893 -0.3199002
vt -0.0839789 0.4965024
vt -0.02908925 -0.3198999
vt -0.1143128 -0.2790028
vt -0.14984 0.5034927
vt -0.4999969 0.09315549
vt 0.5000031 0.09315549
vt -0.4999969 0.1591347
vt 0.5000031 0.1591347
vt 0.5000087 0.02908909
vt -0.4999913 0.02908909
vt 0.4999969 0.1142961
vt -0.5000031 0.1142961
vt 0.02915833 -0.4950209
vt 0.1143555 -0.4950226
vt -0.114217 -0.4950226
vt -0.02901983 -0.4950209
vt -0.5000087 -0.3199
vt 0.4999913 -0.3199
vt -0.5000087 -0.4950209
vt 0.4999913 -0.4950209
vt -0.5000031 0.3450058
vt 0.4999969 0.3450058
vt -0.5000031 0.3191552
vt 0.4999969 0.3191552
vt 0.4999969 0.4124876
vt -0.5000031 0.4124876
vt 0.5000063 0.4214326
vt -0.4999937 0.4214326
vt -0.4614734 -0.169225
vt -0.4115918 -0.5002371
vt -0.4543532 -0.3035144
vt -0.4209194 -0.5003389
vt -0.4547358 -0.3035975
vt 0.410922 -0.5001637
vt 0.4608035 -0.1691516
vt 0.4198669 -0.5001823
vt 0.4613333 -0.1692172
vt 0.4542131 -0.3035065
vt 0.4203967 -0.5002478
vt -0.499994 -0.1445538
vt 0.500006 -0.1445538
vt -0.4999939 -0.2790318
vt 0.5000061 -0.2790318
vt -0.2900052 -0.3896163
vt -0.330733 0.2189462
vt -0.4201604 -0.5002294
vt -0.4613294 -0.1702259
vt 0.3307327 0.2189465
vt 0.2900049 -0.389616
vt 0.4613291 -0.1702256
vt 0.4999891 -0.3266231
vt -0.5000117 -0.4644014
vt -0.5000109 -0.3266231
vt 0.4999883 -0.4644014
vt 0.5000107 -0.3034638
vt -0.5000031 -0.4336762
vt -0.4999893 -0.3034638
vt 0.4999969 -0.4336762
vt 0.4999969 -0.1049969
vt -0.5000031 -0.1049969
vt 0.2899959 -0.389616
vt 0.09153554 -0.4949228
vt 0.2899594 -0.4992071
vt 0.4201033 -0.5034926
vt -0.2899776 -0.4992075
vt -0.4201215 -0.503493
vt 0.4114484 -0.5002294
vt 0.2966777 -0.3896163
vt 0.3504712 0.2179417
vt -0.3504715 0.217942
vt -0.296678 -0.389616
vt -0.4114487 -0.5002292
vt -0.5000067 0.3544458
vt 0.4999933 0.3544458
vt -0.500006 0.4581185
vt 0.499994 0.4581185
vt 0.5000072 0.3002784
vt -0.5000031 0.1306742
vt -0.4999928 0.3002784
vt 0.4999969 0.1306742
vt 0.4999969 0.4023242
vt -0.5000031 0.4023242
vt 0.2838427 -0.4992698
vt 0.3858041 -0.5035032
vt -0.283844 -0.4992489
vt -0.3858055 -0.5034823
vt -0.1143133 -0.2789926

vn 0 -0.1693986 0.9855477
vn 0 -0.1237936 -0.992308
vn -1 -1.480144E-05 -6.067851E-06
vn 1 1.501119E-05 3.067808E-07
vn 0 0.99963 0.02720148
vn 0 0.9997912 0.02043254
vn 0 -1 3.424312E-05
vn 0 0 1
vn 0 -0.01466455 -0.9998925
vn 0 0.9965099 -0.08347439
vn 0 0.9944145 -0.1055453
vn 0 0 -1
vn 0 -0.9919993 0.1262438
vn 0 -0.9999979 -0.002079012
vn 0.9999994 0.0001821107 -0.001052456
vn -0.9999995 -0.0001310644 0.001052562
vn 0 -0.0529469 0.9985973
vn 0 0.3181397 -0.9480439
vn 0 0.6041633 -0.7968605
vn 0 -0.9994583 0.03291097
vn 0 -0.999767 0.02158674
vn 0 0.574896 0.8182265
vn 0 0.2752764 0.9613652
vn 0 -0.999688 -0.02497924
vn 0 -0.9991391 -0.04148436

usemtl WALL
f 3/3/1 2/2/1 1/1/1
f 3/3/1 4/4/1 2/2/1
f 7/7/2 6/6/2 5/5/2
f 7/7/2 8/8/2 6/6/2
f 11/11/3 10/10/3 9/9/3
f 12/12/3 11/11/3 9/9/3
f 12/12/3 13/13/3 11/11/3
f 14/14/3 13/13/3 12/12/3
f 17/17/4 16/16/4 15/15/4
f 17/17/4 18/18/4 16/16/4
f 15/15/4 20/20/4 19/19/4
f 16/16/4 20/20/4 15/15/4
f 15/23/5 19/22/5 14/21/5
f 15/23/5 14/21/5 12/24/5
f 17/25/6 15/23/6 12/24/6
f 17/25/6 12/24/6 9/26/6
f 23/29/7 22/28/7 21/27/7
f 22/28/7 24/30/7 21/27/7
f 10/32/7 11/29/7 18/31/7
f 11/29/7 16/27/7 18/31/7
f 22/33/3 11/11/3 13/13/3
f 22/33/3 23/34/3 11/11/3
f 23/37/8 16/36/8 11/35/8
f 23/37/8 21/38/8 16/36/8
f 21/40/4 20/39/4 16/16/4
f 21/40/4 24/41/4 20/39/4
f 25/44/9 5/43/9 6/42/9
f 25/44/9 26/45/9 5/43/9
f 29/48/3 28/47/3 27/46/3
f 29/48/3 30/49/3 28/47/3
f 9/9/3 10/10/3 30/49/3
f 9/9/3 30/49/3 29/48/3
f 33/52/4 32/51/4 31/50/4
f 34/53/4 33/52/4 31/50/4
f 31/50/4 32/51/4 17/17/4
f 32/51/4 18/18/4 17/17/4
f 31/54/10 17/25/10 9/26/10
f 31/54/10 9/26/10 29/55/10
f 34/56/11 31/54/11 29/55/11
f 34/56/11 29/55/11 27/57/11
f 30/59/7 10/32/7 32/58/7
f 10/32/7 18/31/7 32/58/7
f 37/61/7 36/59/7 35/60/7
f 36/59/7 38/58/7 35/60/7
f 36/62/3 28/47/3 30/49/3
f 36/62/3 37/63/3 28/47/3
f 35/64/4 32/51/4 33/52/4
f 35/64/4 38/65/4 32/51/4
f 38/68/12 30/67/12 32/66/12
f 38/68/12 36/69/12 30/67/12
f 41/72/13 40/71/13 39/70/13
f 41/72/13 42/73/13 40/71/13
f 1/76/14 39/75/14 40/74/14
f 1/76/14 2/77/14 39/75/14
f 3/80/4 40/79/4 43/78/4
f 3/82/15 1/81/15 40/79/15
f 2/85/16 44/84/16 39/83/16
f 2/88/3 4/87/3 44/86/3
f 4/91/17 43/90/17 44/89/17
f 4/91/17 3/92/17 43/90/17
f 46/94/3 45/93/3 13/13/3
f 14/14/3 46/94/3 13/13/3
f 7/96/3 5/95/3 45/93/3
f 46/94/3 7/96/3 45/93/3
f 20/20/4 47/97/4 19/19/4
f 20/20/4 48/98/4 47/97/4
f 48/98/4 8/99/4 47/97/4
f 48/98/4 6/88/4 8/99/4
f 47/102/18 8/101/18 46/100/18
f 8/101/18 7/103/18 46/100/18
f 19/22/19 47/102/19 14/21/19
f 47/102/19 46/100/19 14/21/19
f 50/106/20 26/105/20 49/104/20
f 26/105/20 25/107/20 49/104/20
f 22/109/21 50/106/21 24/108/21
f 50/106/21 49/104/21 24/108/21
f 24/111/4 48/110/4 20/20/4
f 24/111/4 49/112/4 48/110/4
f 49/112/4 6/88/4 48/110/4
f 49/112/4 25/113/4 6/88/4
f 5/95/3 26/115/3 50/114/3
f 45/93/3 5/95/3 50/114/3
f 45/93/3 50/114/3 22/33/3
f 13/13/3 45/93/3 22/33/3
f 51/117/3 39/116/3 44/86/3
f 52/118/3 51/117/3 44/86/3
f 28/47/3 51/117/3 52/118/3
f 27/46/3 28/47/3 52/118/3
f 43/78/4 54/120/4 53/119/4
f 43/78/4 40/121/4 54/120/4
f 53/119/4 33/52/4 34/53/4
f 53/119/4 54/120/4 33/52/4
f 27/57/22 52/123/22 53/122/22
f 27/57/22 53/122/22 34/56/22
f 52/123/23 44/125/23 43/124/23
f 52/123/23 43/124/23 53/122/23
f 56/128/24 37/127/24 55/126/24
f 37/127/24 35/129/24 55/126/24
f 41/131/25 56/128/25 42/130/25
f 56/128/25 55/126/25 42/130/25
f 51/117/3 37/63/3 56/132/3
f 51/117/3 28/47/3 37/63/3
f 51/117/3 41/133/3 39/116/3
f 51/117/3 56/132/3 41/133/3
f 42/135/4 55/134/4 54/120/4
f 40/121/4 42/135/4 54/120/4
f 35/64/4 33/136/4 54/120/4
f 55/134/4 35/64/4 54/120/4

