# ProBuilder 4.3.0
# https://unity3d.com/unity/features/worldbuilding/probuilder
# 2020-09-17 3:19:26 AM

mtllib ./test.mtl
o test

g Cube (4)
v 0.5 -0.5002502 0.4259393
v -0.5 -0.5002502 0.4259393
v 0.5 -0.04973105 0.505145
v -0.5 -0.04973105 0.505145
v -0.5 -0.5002303 -0.4219707
v 0.5 -0.5002303 -0.4219707
v -0.5 -0.03001046 -0.505145
v 0.5 -0.03001046 -0.505145
v -0.5 -0.279004 -0.09338018
v -0.5 0.4924106 -0.1252076
v 0.5 -0.279004 -0.09338018
v 0.5 0.4924106 -0.1252076
v 0.5 -0.494924 -0.09335503
v -0.5 -0.5034938 -0.4219228
v -0.5 -0.494924 -0.09335503
v 0.5 -0.5034938 -0.4219228
v -0.5 -0.5002303 0.4096381
v -0.5 -0.279004 0.1125022
v -0.5 -0.04971114 0.4888438
v -0.5 0.5034916 0.1480294
v 0.5 -0.04971114 0.4888438
v 0.5 0.5034916 0.1480294
v 0.5 -0.279004 0.1125022
v 0.5 -0.5002303 0.4096381
v 0.5 -0.5034938 0.3839944
v -0.5 -0.4950236 0.1124759
v -0.5 -0.5034938 0.3839944
v 0.5 -0.4950236 0.1124759
v -0.5 0.4895158 -0.001223058
v -0.5 -0.279004 -0.001223058
v -0.5 -0.279004 -0.05601171
v -0.5 0.4909607 -0.07192567
v 0.5 0.4909607 -0.07192567
v 0.5 -0.279004 -0.05601171
v 0.5 0.4895158 -0.001223058
v 0.5 -0.279004 -0.001223058
v 0.5 -0.494924 -0.05601171
v -0.5 -0.494924 -0.05601171
v -0.5 0.4965012 0.08216834
v -0.5 -0.279004 0.0644047
v 0.5 0.4965012 0.08216834
v 0.5 -0.279004 0.0644047
v -0.5 -0.4950236 0.0644047
v 0.5 -0.4950236 0.0644047

vt 0.5 -0.4189407
vt -0.5 -0.4189407
vt 0.5 0.03848808
vt -0.5 0.03848808
vt 0.5 -0.4190849
vt -0.5 -0.4190849
vt 0.5 0.05843438
vt -0.5 0.05843438
vt -0.09338018 -0.279004
vt -0.4219707 -0.5002303
vt -0.505145 -0.03001046
vt -0.1252076 0.4924106
vt 0.505145 -0.03001046
vt 0.09338018 -0.279004
vt 0.1252076 0.4924106
vt 0.4219707 -0.5002303
vt 0.5 -0.1156591
vt -0.5 -0.505631
vt -0.5 -0.1156591
vt 0.5 -0.505631
vt 0.5 -0.1062277
vt -0.5 -0.4349072
vt -0.5 -0.1062277
vt 0.5 -0.4349072
vt 0.4096381 -0.5002303
vt 0.1125022 -0.279004
vt 0.4888438 -0.04971114
vt 0.1480294 0.5034916
vt -0.4888438 -0.04971114
vt -0.1480294 0.5034916
vt -0.1125022 -0.279004
vt -0.4096381 -0.5002303
vt 0.5 0.1577411
vt -0.5 0.1577411
vt -0.5 0.4877907
vt 0.5 0.4877907
vt 0.5 0.3995068
vt -0.5 0.1278562
vt -0.5 0.3995068
vt 0.5 0.1278562
vt -0.001223058 0.4895158
vt -0.001223058 -0.279004
vt -0.05601171 -0.279004
vt -0.07192567 0.4909607
vt 0.07192567 0.4909607
vt 0.05601171 -0.279004
vt 0.001223058 0.4895158
vt 0.001223058 -0.279004
vt -0.5 -0.06241525
vt 0.5 -0.06241525
vt -0.5 0.008246182
vt 0.5 0.008246182
vt 0.5 -0.05601171
vt -0.5 -0.09335503
vt -0.5 -0.05601171
vt 0.5 -0.09335503
vt 0.5 -0.001223058
vt -0.5 -0.001223058
vt -0.09335503 -0.494924
vt -0.05601171 -0.494924
vt -0.5 -0.279004
vt 0.5 -0.279004
vt -0.5 -0.494924
vt 0.5 -0.494924
vt 0.05601171 -0.494924
vt 0.09335503 -0.494924
vt 0.4219228 -0.5034938
vt -0.4219228 -0.5034938
vt -0.5 -0.4939885
vt 0.5 -0.4939885
vt -0.5 -0.4972523
vt 0.5 -0.4972523
vt 0.08216834 0.4965012
vt 0.0644047 -0.279004
vt -0.08216834 0.4965012
vt -0.0644047 -0.279004
vt -0.5 0.0917571
vt 0.5 0.0917571
vt 0.5 0.0644047
vt -0.5 0.0644047
vt 0.5 0.1124759
vt -0.5 0.1124759
vt 0.0644047 -0.4950236
vt 0.1124759 -0.4950236
vt -0.1124759 -0.4950236
vt -0.0644047 -0.4950236
vt -0.5 -0.4950236
vt 0.5 -0.4950236
vt 0.3839944 -0.5034938
vt -0.5 0.3432097
vt 0.5 0.3432097
vt -0.5 0.3173591
vt 0.5 0.3173591
vt -0.3839944 -0.5034938
vt 0.5 0.4102487
vt -0.5 0.4102487
vt 0.5 0.4265499
vt -0.5 0.4265499
vt -0.505145 -0.04973105
vt -0.4259393 -0.5002502
vt 0.4259393 -0.5002502
vt 0.505145 -0.04973105
vt 0.5 0.4889041
vt -0.5 0.4889041
vt 0.5 0.5052053
vt -0.5 0.5052053

vn 0 -0.1731541 0.9848948
vn 0 -0.1741799 -0.9847139
vn -1 0 0
vn 1 0 0
vn 0 0.5881664 -0.8087398
vn 0 -0.9996601 0.02607344
vn 0 0.5245237 0.8513959
vn 0 -0.9995137 -0.03118041
vn 0 0.99963 0.02720148
vn 0 0.9997912 0.02043254
vn 0 -1 0
vn 0 0 1
vn 0 -0.01466455 -0.9998925
vn 0 0.9965099 -0.08347439
vn 0 0.9944145 -0.1055453
vn 0 0 -1
vn 0 -0.9919993 0.1262438
vn 0 -0.9999992 -0.001221257
vn 0 0.9999992 0.001221259

usemtl WALL
f 3/3/1 2/2/1 1/1/1
f 3/3/1 4/4/1 2/2/1
f 7/7/2 6/6/2 5/5/2
f 7/7/2 8/8/2 6/6/2
f 7/11/3 5/10/3 9/9/3
f 7/11/3 9/9/3 10/12/3
f 12/15/4 11/14/4 8/13/4
f 11/14/4 6/16/4 8/13/4
f 12/19/5 8/18/5 10/17/5
f 8/18/5 7/20/5 10/17/5
f 15/23/6 14/22/6 13/21/6
f 14/22/6 16/24/6 13/21/6
f 19/27/3 18/26/3 17/25/3
f 19/27/3 20/28/3 18/26/3
f 23/31/4 22/30/4 21/29/4
f 24/32/4 23/31/4 21/29/4
f 21/35/7 22/34/7 20/33/7
f 21/35/7 20/33/7 19/36/7
f 27/39/8 26/38/8 25/37/8
f 26/38/8 28/40/8 25/37/8
f 31/43/3 30/42/3 29/41/3
f 32/44/3 31/43/3 29/41/3
f 32/44/3 9/9/3 31/43/3
f 10/12/3 9/9/3 32/44/3
f 35/47/4 34/46/4 33/45/4
f 35/47/4 36/48/4 34/46/4
f 33/45/4 11/14/4 12/15/4
f 34/46/4 11/14/4 33/45/4
f 33/49/9 12/19/9 10/17/9
f 33/49/9 10/17/9 32/50/9
f 35/51/10 33/49/10 32/50/10
f 35/51/10 32/50/10 29/52/10
f 38/55/11 15/54/11 37/53/11
f 15/54/11 13/56/11 37/53/11
f 30/58/11 31/55/11 36/57/11
f 31/55/11 34/53/11 36/57/11
f 15/59/3 31/43/3 9/9/3
f 15/59/3 38/60/3 31/43/3
f 38/63/12 34/62/12 31/61/12
f 38/63/12 37/64/12 34/62/12
f 37/65/4 11/14/4 34/46/4
f 37/65/4 13/66/4 11/14/4
f 13/66/4 6/16/4 11/14/4
f 13/66/4 16/67/4 6/16/4
f 14/68/3 9/9/3 5/10/3
f 14/68/3 15/59/3 9/9/3
f 16/71/13 5/70/13 6/69/13
f 16/71/13 14/72/13 5/70/13
f 39/73/3 18/26/3 20/28/3
f 39/73/3 40/74/3 18/26/3
f 29/41/3 30/42/3 40/74/3
f 29/41/3 40/74/3 39/73/3
f 23/31/4 42/76/4 41/75/4
f 22/30/4 23/31/4 41/75/4
f 41/75/4 42/76/4 35/47/4
f 42/76/4 36/48/4 35/47/4
f 41/77/14 35/51/14 29/52/14
f 41/77/14 29/52/14 39/78/14
f 22/34/15 41/77/15 39/78/15
f 22/34/15 39/78/15 20/33/15
f 40/80/11 30/58/11 42/79/11
f 30/58/11 36/57/11 42/79/11
f 26/82/11 43/80/11 28/81/11
f 43/80/11 44/79/11 28/81/11
f 43/83/3 18/26/3 40/74/3
f 43/83/3 26/84/3 18/26/3
f 28/85/4 42/76/4 23/31/4
f 28/85/4 44/86/4 42/76/4
f 44/87/16 40/62/16 42/61/16
f 44/87/16 43/88/16 40/62/16
f 26/84/3 17/25/3 18/26/3
f 26/84/3 27/89/3 17/25/3
f 27/92/17 24/91/17 17/90/17
f 27/92/17 25/93/17 24/91/17
f 25/94/4 23/31/4 24/32/4
f 25/94/4 28/85/4 23/31/4
f 1/97/18 17/96/18 24/95/18
f 1/97/18 2/98/18 17/96/18
f 3/99/4 24/32/4 21/29/4
f 3/99/4 1/100/4 24/32/4
f 2/101/3 19/27/3 17/25/3
f 2/101/3 4/102/3 19/27/3
f 4/105/19 21/104/19 19/103/19
f 4/105/19 3/106/19 21/104/19

