# ProBuilder 4.3.0
# https://unity3d.com/unity/features/worldbuilding/probuilder
# 2020-09-17 3:24:52 AM

mtllib ./test3.mtl
o test3

g Cube
v -0.5 -0.5 0.5
v -0.5 -0.5 -0.5
v -0.4999989 -0.04285502 0.5
v -0.4999989 -0.04285502 -0.5
v 0.5 -0.5 -0.5
v 0.5 -0.5 0.5
v 0.5000011 -0.04285502 -0.5
v 0.5000011 -0.04285502 0.5
v -0.1055918 -0.4999979 0.5
v -0.1691511 0.5000021 0.5
v -0.1055918 -0.4999979 -0.5
v -0.1691511 0.5000021 -0.5
v 0.1020353 -0.4999979 0.5
v 0.1698319 0.5000021 0.5
v 0.1698319 0.5000021 -0.5
v 0.1020353 -0.4999979 -0.5
v 0.1020353 -0.2142836 0.5
v 0.1189845 0.5000021 0.5
v 0.1189845 0.5000021 -0.5
v 0.1020353 -0.2142836 -0.5
v -0.1098291 0.5000021 0.5
v -0.09711725 -0.2142836 0.5
v -0.09711725 -0.2142836 -0.5
v -0.1098291 0.5000021 -0.5

vt 0.5 -0.5000012
vt -0.5 -0.5000012
vt 0.5 -0.0428562
vt -0.5 -0.0428562
vt 0.5 -0.4999988
vt -0.5 -0.4999988
vt -0.1055918 -0.4999979
vt -0.4999989 -0.04285502
vt -0.1691511 0.5000021
vt 0.4999989 -0.04285502
vt 0.1055918 -0.4999979
vt 0.1691511 0.5000021
vt 0.4999939 -0.5
vt 0.1692098 -0.5
vt 0.4999939 0.5
vt -0.1055193 0.5
vt -0.4999275 -0.5
vt -0.4999275 0.5
vt -0.1055193 -0.5
vt 0.1020353 -0.4999979
vt 0.1698319 0.5000021
vt -0.1698319 0.5000021
vt -0.1020353 -0.4999979
vt -0.1697732 -0.5
vt -0.5000061 0.5
vt 0.5000725 0.5
vt 0.1021078 -0.5
vt 0.1021078 0.5
vt 0.1020353 -0.2142836
vt 0.1189845 0.5000021
vt -0.1189845 0.5000021
vt -0.1020353 -0.2142836
vt -0.1189258 -0.5
vt -0.1098291 0.5000021
vt -0.09711725 -0.2142836
vt 0.09711725 -0.2142836
vt 0.1098291 0.5000021
vt 0.1098878 -0.5
vt -0.09708616 0.5
vt -0.09708616 -0.5

vn -1 2.346922E-06 0
vn 1 -2.346922E-06 0
vn 0 0 1
vn 0 0 -1
vn -0.8539099 0.5204208 0
vn 5.364911E-06 -1 0
vn 0.8543842 0.5196418 0
vn 0 1 0
vn 0.9995604 -0.02964802 0

usemtl WALL
f 3/3/1 2/2/1 1/1/1
f 3/3/1 4/4/1 2/2/1
f 7/3/2 6/6/2 5/5/2
f 7/3/2 8/4/2 6/6/2
f 3/8/3 1/2/3 9/7/3
f 3/8/3 9/7/3 10/9/3
f 12/12/4 11/11/4 4/10/4
f 11/11/4 2/1/4 4/10/4
f 10/12/5 12/14/5 4/13/5
f 10/12/5 4/13/5 3/15/5
f 1/18/6 2/17/6 9/16/6
f 2/17/6 11/19/6 9/16/6
f 13/20/3 6/1/3 8/3/3
f 14/21/3 13/20/3 8/3/3
f 7/4/4 16/23/4 15/22/4
f 7/4/4 5/2/4 16/23/4
f 14/22/7 7/2/7 15/24/7
f 14/22/7 8/25/7 7/2/7
f 13/28/6 16/27/6 6/26/6
f 16/27/6 5/1/6 6/26/6
f 13/20/3 14/21/3 17/29/3
f 14/21/3 18/30/3 17/29/3
f 20/32/4 19/31/4 15/22/4
f 20/32/4 15/22/4 16/23/4
f 18/31/8 15/24/8 19/33/8
f 18/31/8 14/22/8 15/24/8
f 16/27/1 13/28/1 17/28/1
f 20/27/1 16/27/1 17/28/1
f 21/34/3 17/29/3 18/30/3
f 21/34/3 22/35/3 17/29/3
f 10/9/3 22/35/3 21/34/3
f 10/9/3 9/7/3 22/35/3
f 23/36/4 11/11/4 12/12/4
f 24/37/4 23/36/4 12/12/4
f 20/32/4 23/36/4 24/37/4
f 19/31/4 20/32/4 24/37/4
f 21/37/8 24/38/8 12/14/8
f 21/37/8 12/14/8 10/12/8
f 21/37/8 19/33/8 24/38/8
f 21/37/8 18/31/8 19/33/8
f 9/16/9 11/19/9 22/39/9
f 11/19/9 23/40/9 22/39/9
f 22/39/6 23/40/6 17/28/6
f 23/40/6 20/27/6 17/28/6

