# ProBuilder 4.3.0
# https://unity3d.com/unity/features/worldbuilding/probuilder
# 2020-09-17 3:28:50 AM

mtllib ./test5.mtl
o test5

g Cube (5)
v 0 1 0
v -1 1 0
v 0 1 -1
v -1 1 -1
v -7.829236E-06 -0.1555394 -2.172973
v -1.000004 -0.1555394 -2.172973
v -7.829236E-06 -0.1582464 1.190616
v -1.000004 -0.1582464 1.190616
v -1.000004 0.3952329 0.7781226
v -7.829236E-06 0.3952329 0.7781226
v -1.000004 0.392532 -1.723534
v -7.829236E-06 0.392532 -1.723534
v 0 0.9257236 -1.04522
v -0.9999962 0.9257236 -1.04522
v 0 0.9257224 -0.04521974
v -0.9999962 0.9257224 -0.04521974
v 0 1.925725 0.2459966
v -0.9999962 1.925725 0.2459966
v 0 1.925727 -1.291221
v -0.9999962 1.925727 -1.291221
v -0.9999962 1.493847 -1.045219
v 0 1.493847 -1.045219
v -0.9999962 1.493846 -0.04521899
v 0 1.493846 -0.04521899

vt 0 0
vt 1 0
vt 0 -1
vt 1 -1
vt -7.829236E-06 -2.172847
vt -1.000004 -2.172847
vt -7.829236E-06 1.190743
vt -1.000004 1.190743
vt -7.829236E-06 -0.9463598
vt -1.000004 -0.9463598
vt -1.000004 -0.2623411
vt -7.829236E-06 -0.2623411
vt -1 0.7142202
vt 0 0.7142202
vt 1.190616 -0.1582497
vt -2.172973 -0.1555428
vt -1.723534 0.3925286
vt 0.7781226 0.3952295
vt -1 0.9999967
vt 3.606405E-09 0.9999967
vt 1.000004 -1.638222
vt 7.829236E-06 -1.638222
vt 7.829236E-06 -0.932484
vt 1.000004 -0.932484
vt 0 0.008185506
vt 1 0.008185506
vt 2.172973 -0.1555394
vt -1.190616 -0.1582464
vt -0.7781226 0.3952329
vt 1.723534 0.392532
vt 0 1
vt 1 1
vt -5.960464E-08 -0.9999999
vt 1 -0.9999999
vt -7.808208E-06 -1.291215
vt -1.000004 -1.291215
vt -7.688999E-06 0.2460027
vt -1.000004 0.2460028
vt 0 -0.2549541
vt 0.9999962 -0.2549541
vt 0.9999962 -0.2785823
vt 0 -0.2785823
vt 0.9999962 -0.5123589
vt 0 -0.5123589
vt -1.291221 1.925726
vt 0.2459966 1.925724
vt -0.04521899 1.493845
vt -1.045219 1.493846
vt -0.04521981 0.9257208
vt -1.04522 0.9257219
vt 0.7257531 -1.145098
vt -0.03170514 -0.6794778
vt 0.2742432 -0.1817696
vt 1.031701 -0.6473902
vt -0.06464744 -0.6809846
vt 0.07182032 -0.1903914
vt 1.064644 -0.4665641
vt 0.9281759 -0.9571573
vt -0.2459966 1.925725
vt 1.291221 1.925727
vt 1.045219 1.493847
vt 0.04521899 1.493846
vt 1.04522 0.9257236
vt 0.04521981 0.9257224

vn 0 1 0
vn 0 -0.9999997 -0.0008047874
vn 0 0.5975716 0.8018156
vn 0 0.7895682 0.6136628
vn -1 0 0
vn 0 0.6340972 -0.7732534
vn 0 0.7658613 -0.6430057
vn 1 0 0
vn 0 -1 -1.132488E-06
vn 0 -0.494945 -0.8689243
vn 0 1.258978E-06 -1
vn 0 -0.5590736 0.8291181
vn 0 -1.317993E-06 1

usemtl WALL
f 3/3/1 4/4/1 2/2/1 1/1/1
f 7/7/2 8/8/2 6/6/2 5/5/2
f 10/12/3 9/11/3 8/10/3 7/9/3
f 1/14/4 2/13/4 9/11/4 10/12/4
f 9/18/5 11/17/5 6/16/5 8/15/5
f 2/20/5 4/19/5 11/17/5 9/18/5
f 6/21/6 11/24/6 12/23/6 5/22/6
f 11/24/7 4/26/7 3/25/7 12/23/7
f 5/27/8 12/30/8 10/29/8 7/28/8
f 12/30/8 3/32/8 1/31/8 10/29/8
f 15/33/9 16/34/9 14/2/9 13/1/9
f 19/37/1 20/38/1 18/36/1 17/35/1
f 22/42/10 21/41/10 20/40/10 19/39/10
f 13/44/11 14/43/11 21/40/11 22/39/11
f 21/48/5 23/47/5 18/46/5 20/45/5
f 14/50/5 16/49/5 23/47/5 21/48/5
f 18/51/12 23/54/12 24/53/12 17/52/12
f 23/58/13 16/57/13 15/56/13 24/55/13
f 17/59/8 24/62/8 22/61/8 19/60/8
f 24/62/8 15/64/8 13/63/8 22/61/8

