# ProBuilder 4.3.0
# https://unity3d.com/unity/features/worldbuilding/probuilder
# 2020-09-17 3:26:27 AM

mtllib ./test4.mtl
o test4

g Cube
v -0.6840382 1.000001 -1
v 6.257436E-06 0.439272 -1
v 6.257436E-06 0.439272 0
v -0.6840382 1.000001 0
v -1 1 -1
v -1 1 0
v -0.1305053 -1.427983E-06 0
v -0.6840382 -1.427983E-06 -1
v -0.6840382 -1.427983E-06 0
v -0.1305053 -1.427983E-06 -1
v -1 0 -1
v -1 0 0
v -1 0.5 -1
v -1 0.5 0
v -0.02626394 0.2301457 -1
v -0.02626394 0.2301457 0
v -0.6840382 0.4999997 0
v -0.6840382 0.4999997 -1

vt 0.9807386 -1
vt 0.147862 -1
vt 0.147862 0
vt 0.9807386 0
vt 1.278261 -1
vt 1.278261 0
vt -0.1305053 0
vt -0.6840382 -1
vt -0.6840382 0
vt -0.1305053 -1
vt -1 -1
vt -1 0
vt 0 0
vt -1 0.5
vt 0 0.5
vt -1 1
vt 0 1
vt 1 0.214355
vt 0 -0.03545571
vt 0 0.214355
vt 1 -0.03545571
vt 1 0.422753
vt 0 0.422753
vt -0.02626394 0.2301457
vt -0.6840382 0.4999997
vt 6.257436E-06 0.439272
vt -0.6840382 1.000001
vt 1 0.5
vt 1 0
vt 0.6840382 0.4999997
vt 0.6840382 -1.427983E-06
vt 1 1
vt 0.6840382 1.000001
vt 0.02626394 0.2301457
vt 0.1305053 -1.427983E-06

vn 0.6339527 0.7733718 0
vn -2.641031E-06 1 0
vn 0 -1 0
vn -1 0 0
vn 0.9109188 -0.4125857 0
vn 0.9922022 -0.1246392 0
vn 0 0 1
vn 0 0 -1

usemtl WALL
f 3/3/1 2/2/1 1/1/1
f 3/3/1 1/1/1 4/4/1
f 4/4/2 1/1/2 5/5/2
f 4/4/2 5/5/2 6/6/2
f 9/9/3 8/8/3 7/7/3
f 8/8/3 10/10/3 7/7/3
f 12/12/3 11/11/3 9/9/3
f 11/11/3 8/8/3 9/9/3
f 13/14/4 11/12/4 12/13/4
f 13/14/4 12/13/4 14/15/4
f 5/16/4 13/14/4 14/15/4
f 5/16/4 14/15/4 6/17/4
f 16/20/5 7/19/5 15/18/5
f 7/19/5 10/21/5 15/18/5
f 3/23/6 16/20/6 2/22/6
f 16/20/6 15/18/6 2/22/6
f 16/24/7 9/9/7 7/7/7
f 16/24/7 17/25/7 9/9/7
f 17/25/7 16/24/7 3/26/7
f 4/27/7 17/25/7 3/26/7
f 12/12/7 9/9/7 17/25/7
f 14/14/7 12/12/7 17/25/7
f 6/16/7 14/14/7 17/25/7
f 6/16/7 17/25/7 4/27/7
f 18/30/8 11/29/8 13/28/8
f 18/30/8 8/31/8 11/29/8
f 1/33/8 18/30/8 5/32/8
f 18/30/8 13/28/8 5/32/8
f 8/31/8 18/30/8 15/34/8
f 10/35/8 8/31/8 15/34/8
f 2/26/8 18/30/8 1/33/8
f 2/26/8 15/34/8 18/30/8

